<?xml version="1.0" encoding="utf-8"?>
<svg xmlns="http://www.w3.org/2000/svg" viewBox="0 0 128 128" width="512" height="512">
  <path fill="#F4EFCB" d="M104,50.4c0-3.9-2-7.3-5.1-9.2c0.9-1.3,1.5-2.9,1.5-4.6c0-4.4-3.6-8-8-8c-0.1,0-0.2,0-0.3,0c0.2-0.7,0.3-1.4,0.3-2.2c0-4-3.3-7.3-7.3-7.3c-1.6,0-3.1,0.5-4.4,1.5c0,0,0,0,0,0c0-3.6-2.9-6.5-6.5-6.5c-3.6,0-6.5,2.9-6.5,6.5c0,3.6,0,45.6,0,51.7c0,1.4,0.3,2.8,0.8,4h-8.8c0.5-1.2,0.8-2.6,0.8-4c0-6,0-48,0-51.7c0-3.6-2.9-6.5-6.5-6.5c-3.6,0-6.5,2.9-6.5,6.5c0,0,0,0,0,0c-1.2-0.9-2.7-1.5-4.4-1.5c-4,0-7.3,3.3-7.3,7.3c0,0.8,0.1,1.5,0.3,2.2c-0.1,0-0.2,0-0.3,0c-4.4,0-8,3.6-8,8c0,1.7,0.5,3.3,1.5,4.6C26,43.1,24,46.5,24,50.4c0,3.9,2,7.3,5,9.2c-0.9,1.6-1.4,3.4-1.4,5.4c0,6,4.9,10.9,10.9,10.9c0.2,0,0.4,0,0.6,0c0,0.1,0.1,0.3,0.2,0.4h-1.1c5.6,5.1,8.7,12.5,8.7,20.1V99H64h17.1v-2.7c0-7.6,3-15,8.7-20.1h-1.1c0.1-0.1,0.1-0.3,0.2-0.4c0.2,0,0.4,0,0.6,0c6,0,10.9-4.9,10.9-10.9c0-1.9-0.5-3.8-1.4-5.4C102,57.6,104,54.2,104,50.4z" />
  <path fill="#FFF" d="M59.6,76.2c0.5-1.2,0.8-2.6,0.8-4c0-6,0-48,0-51.7c0-3.6-2.9-6.5-6.5-6.5c-3.6,0-6.5,2.9-6.5,6.5c0,0,0,0,0,0c-1.2-0.9-2.7-1.5-4.4-1.5c-4,0-7.3,3.3-7.3,7.3c0,0.8,0.1,1.5,0.3,2.2c-0.1,0-0.2,0-0.3,0c-4.4,0-8,3.6-8,8c0,1.7,0.5,3.3,1.5,4.6C26,43.1,24,46.5,24,50.4c0,3.9,2,7.3,5,9.2c-0.9,1.6-1.4,3.4-1.4,5.4c0,6,4.9,10.9,10.9,10.9c0.2,0,0.4,0,0.6,0c0,0.1,0.1,0.3,0.2,0.4h-1.1c5.6,5.1,8.7,12.5,8.7,20.1V99H64V76.2H59.6z" />
  <path fill="#454B54" d="M34.9 64.3c-7.7 0-13.9-6.2-13.9-13.9 0-1.7 1.3-3 3-3s3 1.3 3 3c0 4.4 3.5 7.9 7.9 7.9s7.9-3.6 7.9-7.9v-3.6c0-1.7 1.3-3 3-3s3 1.3 3 3v3.6C48.8 58.1 42.6 64.3 34.9 64.3zM42.9 36.6c-5.7 0-10.3-4.6-10.3-10.3 0-1.7 1.3-3 3-3s3 1.3 3 3c0 2.4 1.9 4.3 4.3 4.3 1.7 0 3 1.3 3 3S44.6 36.6 42.9 36.6z" />
  <path fill="#F1E9B4" d="M104,50.4c0-3.9-2-7.3-5.1-9.2c0.9-1.3,1.5-2.9,1.5-4.6c0-4.4-3.6-8-8-8c-0.1,0-0.2,0-0.3,0c0.2-0.7,0.3-1.4,0.3-2.2c0-4-3.3-7.3-7.3-7.3c-1.1,0-2.1,0.2-3,0.7c6.4,8,10.4,19.3,10.4,31.9c0,11.8-3.5,22.5-9.2,30.4c2.6-1.3,4.6-3.5,5.6-6.2c0.2,0,0.4,0,0.6,0c6,0,10.9-4.9,10.9-10.9c0-1.9-0.5-3.8-1.4-5.4C102,57.6,104,54.2,104,50.4z" />
  <path fill="#454B54" d="M92 64.3c-7.7 0-13.9-6.2-13.9-13.9 0-1.7 1.3-3 3-3s3 1.3 3 3c0 4.4 3.5 7.9 7.9 7.9 1.7 0 3 1.3 3 3S93.6 64.3 92 64.3zM78.1 29.4c-1.7 0-3-1.3-3-3 0-5.7 4.6-10.3 10.3-10.3 1.7 0 3 1.3 3 3s-1.3 3-3 3c-2.4 0-4.3 1.9-4.3 4.3C81.1 28 79.8 29.4 78.1 29.4z" />
  <path fill="#454B54" d="M78.6 86.1c-7.7 0-13.9-6.2-13.9-13.9V20.5c0-5.3 4.3-9.5 9.5-9.5 3.8 0 7 2.2 8.6 5.4.8-.2 1.5-.3 2.3-.3 5.5 0 10.1 4.4 10.3 9.9 4.6 1.3 8 5.6 8 10.6 0 1.3-.2 2.6-.7 3.8 2.7 2.6 4.3 6.2 4.3 10.1 0 3.9-1.6 7.5-4.4 10.1.5 1.4.7 2.9.7 4.4 0 7.2-5.5 13.2-12.6 13.9C88.4 83.2 83.7 86.1 78.6 86.1zM74.2 17c-2 0-3.5 1.6-3.5 3.5v51.7c0 4.4 3.5 7.9 7.9 7.9 3.4 0 6.3-2.1 7.5-5.3.4-1.3 1.7-2.1 3-2l.2 0c.1 0 .2 0 .2 0 4.4 0 7.9-3.6 7.9-7.9 0-1.4-.4-2.7-1-3.9-.8-1.4-.3-3.1 1-4 2.3-1.5 3.7-4 3.7-6.7 0-2.7-1.4-5.2-3.7-6.7-.7-.4-1.2-1.1-1.3-1.9-.2-.8 0-1.6.5-2.3.6-.8.9-1.8.9-2.9 0-2.8-2.2-5-5-5l-.2 0c-1 0-1.9-.4-2.5-1.2-.6-.8-.8-1.8-.5-2.7.1-.4.2-.9.2-1.3 0-2.4-1.9-4.3-4.3-4.3-.9 0-1.8.3-2.6.9-.9.7-2.1.8-3.1.3-1-.5-1.7-1.5-1.7-2.7C77.8 18.6 76.2 17 74.2 17zM49.5 86.1c-1.7 0-3-1.3-3-3s1.3-3 3-3c4.4 0 7.9-3.6 7.9-7.9V20.5c0-2-1.6-3.5-3.5-3.5-2 0-3.5 1.6-3.5 3.5 0 1.1-.6 2.2-1.7 2.7-1 .5-2.2.4-3.1-.3-.7-.6-1.6-.9-2.6-.9-2.4 0-4.3 1.9-4.3 4.3 0 .4.1.9.2 1.3.5 1.6-.4 3.3-2 3.8-1.6.5-3.3-.4-3.8-2-.3-1-.5-2.1-.5-3.1 0-5.7 4.6-10.3 10.3-10.3.8 0 1.6.1 2.3.3 1.6-3.2 4.8-5.4 8.6-5.4 5.3 0 9.5 4.3 9.5 9.5v51.7C63.4 79.9 57.1 86.1 49.5 86.1zM38.6 78.8c-5.8 0-11-3.6-13-9.1-.6-1.6.2-3.3 1.8-3.9 1.6-.6 3.3.2 3.9 1.8 1.1 3.1 4.1 5.2 7.4 5.2 1.7 0 3 1.3 3 3S40.2 78.8 38.6 78.8zM29 62.6c-.6 0-1.1-.2-1.6-.5-4-2.6-6.4-7-6.4-11.7 0-3.9 1.6-7.5 4.3-10.1-.4-1.2-.7-2.5-.7-3.8 0-1.7 1.3-3 3-3s3 1.3 3 3c0 1 .3 2 .9 2.9.5.7.7 1.5.5 2.3-.2.8-.6 1.5-1.3 1.9-2.3 1.5-3.7 4-3.7 6.7 0 2.7 1.4 5.2 3.7 6.7 1.4.9 1.8 2.7.9 4.1C31 62.1 30 62.6 29 62.6z" />
  <path fill="#454B54" d="M78 39.4c-.8 0-1.6-.3-2.1-.9-.6-.6-.9-1.3-.9-2.1s.3-1.6.9-2.1c1.1-1.1 3.1-1.1 4.2 0 .6.6.9 1.3.9 2.1s-.3 1.6-.9 2.1C79.6 39.1 78.8 39.4 78 39.4zM98.9 44.2h-3.6c-1.7 0-3-1.3-3-3s1.3-3 3-3h3.6c1.7 0 3 1.3 3 3S100.6 44.2 98.9 44.2zM32.7 44.2h-3.6c-1.7 0-3-1.3-3-3s1.3-3 3-3h3.6c1.7 0 3 1.3 3 3S34.4 44.2 32.7 44.2zM81.1 112H46.9c-1.7 0-3-1.3-3-3V99c0-1.7 1.3-3 3-3h31.2c.1-8.5 3.6-16.5 9.7-22 1.2-1.1 3.1-1 4.2.2 1.1 1.2 1 3.1-.2 4.2-4.9 4.4-7.7 10.9-7.7 17.9V99c0 0 0 0 0 0l-.1 10C84 110.7 82.7 112 81.1 112zM49.9 106h28.2l0-4H49.9V106zM66 122h-4c-1.7 0-3-1.3-3-3s1.3-3 3-3h4c1.7 0 3 1.3 3 3S67.7 122 66 122z" />
</svg>