<?xml version="1.0" encoding="utf-8"?>
<svg xmlns="http://www.w3.org/2000/svg" width="512" height="512" viewBox="0 0 128 128">
  <path fill="#fff" d="M87 112h-3l-7.7-25.7C73.7 77.8 66 72 57.1 72h-6.2c-8.8 0-16.6 5.8-19.2 14.3L24 112h-3c-3.3 0-6 2.7-6 6s2.7 6 6 6h66c3.3 0 6-2.7 6-6S90.3 112 87 112zM54 38A12 12 0 1 0 54 62 12 12 0 1 0 54 38z" />
  <path fill="#444b54" d="M54 65c-8.3 0-15-6.7-15-15s6.7-15 15-15 15 6.7 15 15S62.3 65 54 65zM54 41c-5 0-9 4-9 9s4 9 9 9 9-4 9-9S59 41 54 41zM25.7 106.2c1.6.5 3.3-.4 3.7-2l5.1-17.1C36.8 79.9 43.3 75 50.9 75h6.2c7.6 0 14.1 4.9 16.3 12.1l5.1 17.1c.4 1.3 1.6 2.1 2.9 2.1.3 0 .6 0 .9-.1 1.6-.5 2.5-2.1 2-3.7l-5.1-17.1C76.2 75.6 67.4 69 57.1 69h-6.2c-10.2 0-19.1 6.6-22 16.4l-5.1 17.1C23.2 104.1 24.1 105.8 25.7 106.2z" />
  <path fill="#444b54" d="M107.3,121H95.5c0.3-0.9,0.5-1.9,0.5-3c0-5-4-9-9-9H73v-3c0-1.7-1.3-3-3-3s-3,1.3-3,3v3h-3c-1.7,0-3,1.3-3,3s1.3,3,3,3h23c1.7,0,3,1.3,3,3s-1.3,3-3,3H56.5c0.3-0.9,0.5-1.9,0.5-3c0-5-4-9-9-9h-7v-3c0-1.7-1.3-3-3-3s-3,1.3-3,3v3H21c-5,0-9,4-9,9s4,9,9,9h23h4h39h20.3c1.7,0,3-1.3,3-3S108.9,121,107.3,121z M44,121H21c-1.7,0-3-1.3-3-3s1.3-3,3-3h27c1.7,0,3,1.3,3,3s-1.3,3-3,3H44z" />
  <g>
    <path fill="#444b54" d="M122.3 121A3 3 0 1 0 122.3 127A3 3 0 1 0 122.3 121Z" />
  </g>
</svg>