<?xml version="1.0" encoding="utf-8"?>
<svg xmlns="http://www.w3.org/2000/svg" viewBox="0 0 24 24" width="96" height="96">
  <path d="M19,6h-8l-0.545-1.632C10.183,3.551,9.419,3,8.558,3H4C2.895,3,2,3.895,2,5v1v12c0,1.657,1.343,3,3,3h1.092C6.036,20.843,6,20.676,6,20.5C6,19.672,6.672,19,7.5,19S9,19.672,9,20.5c0,0.176-0.036,0.343-0.092,0.5h6.184C15.036,20.843,15,20.676,15,20.5c0-0.828,0.672-1.5,1.5-1.5s1.5,0.672,1.5,1.5c0,0.176-0.036,0.343-0.092,0.5H19c1.657,0,3-1.343,3-3V9C22,7.343,20.657,6,19,6z" opacity=".35" fill="#1A4496" />
  <path d="M16.401,14.321c-0.786-0.785-2.071-0.785-2.855,0l0,0l-0.001,0l-0.714,0.714L9.976,12.18l0.714-0.714l0-0.001l0,0c0.785-0.785,0.785-2.07,0-2.855c-0.786-0.785-2.071-0.785-2.855,0l0,0l-0.001,0C7.713,8.731,7.605,8.861,7.509,8.999L7.508,9H7.51c-0.33,0.47-0.5,1.03-0.5,1.6c0,0.24,0.03,0.48,0.09,0.71c0.354,1.359,1.012,2.59,1.892,3.639c0.013,0.015,0.03,0.033,0.042,0.048c1.204,1.4,2.822,2.431,4.671,2.912c0.965,0.251,1.991-0.028,2.696-0.733C17.186,16.391,17.186,15.106,16.401,14.321z" fill="#1A4496" />
</svg>