<?xml version="1.0" encoding="utf-8"?>
<svg xmlns="http://www.w3.org/2000/svg" viewBox="0 0 128 128" width="512" height="512">
  <path fill="#fff" d="M49 14H79V75H49z" />
  <path fill="#c0e7ff" d="M73,78c-1.7,0-3-1.3-3-3V14c0-1.7,1.3-3,3-3s3,1.3,3,3v61C76,76.7,74.7,78,73,78z" />
  <path fill="#c0e7ff" d="M75 24H79V55H75z" />
  <path fill="#c0e7ff" d="M79,58h-4c-1.7,0-3-1.3-3-3V24c0-1.7,1.3-3,3-3h4c1.7,0,3,1.3,3,3v31C82,56.7,80.7,58,79,58z" />
  <path fill="#fff" d="M108,114H25c-2.8,0-5,2.2-5,5l0,0c0,2.8,2.2,5,5,5h83V114z" />
  <path fill="#c0e7ff" d="M64 114H108V124H64z" />
  <path fill="#444b54" d="M69 7H59c-1.7 0-3-1.3-3-3s1.3-3 3-3h10c1.7 0 3 1.3 3 3S70.7 7 69 7zM79 98H49c-1.7 0-3-1.3-3-3s1.3-3 3-3h30c1.7 0 3 1.3 3 3S80.7 98 79 98z" />
  <path fill="#fff" d="M108 68.9A10 10 0 1 0 108 88.9A10 10 0 1 0 108 68.9Z" />
  <g>
    <path fill="#444b54" d="M110.9,66.2C109.8,48.6,98,33.9,82,28.3V14c0-1.7-1.3-3-3-3H49c-1.7,0-3,1.3-3,3v61c0,1.7,1.3,3,3,3h30c1.7,0,3-1.3,3-3V45c0-1.7-1.3-3-3-3s-3,1.3-3,3v27H52V17h24v9.8c-2.6-0.5-5.3-0.8-8-0.8h-4c-1.7,0-3,1.3-3,3s1.3,3,3,3h4c19.5,0,35.5,15.1,36.9,34.3c-5.7,1.4-9.9,6.5-9.9,12.6c0,6.1,4.3,11.3,10,12.6V111H25c-4.4,0-8,3.6-8,8s3.6,8,8,8h83c1.7,0,3-1.3,3-3v-10V91.5c5.7-1.4,10-6.5,10-12.6C121,72.7,116.7,67.5,110.9,66.2z M105,121H25c-1.1,0-2-0.9-2-2s0.9-2,2-2h80V121z M108.8,85.9C108.8,85.9,108.7,85.9,108.8,85.9c-0.3,0-0.5,0-0.8,0c-3.9,0-7-3.1-7-7c0-0.2,0-0.4,0-0.7c0.3-3.6,3.3-6.3,7-6.3c3.6,0,6.6,2.8,7,6.3c0,0.2,0,0.5,0,0.7C115,82.5,112.3,85.5,108.8,85.9z" />
  </g>
</svg>