<?xml version="1.0" encoding="UTF-8"?>
<!DOCTYPE svg PUBLIC "-//W3C//DTD SVG 1.1//EN" "http://www.w3.org/Graphics/SVG/1.1/DTD/svg11.dtd">
<!-- Creator: CorelDRAW 2021 (64-Bit) -->
<svg xmlns="http://www.w3.org/2000/svg" xml:space="preserve" width="49.8818mm" height="14.3655mm" version="1.1" style="shape-rendering:geometricPrecision; text-rendering:geometricPrecision; image-rendering:optimizeQuality; fill-rule:evenodd; clip-rule:evenodd"
viewBox="0 0 1224 352.5"
 xmlns:xlink="http://www.w3.org/1999/xlink"
 xmlns:xodm="http://www.corel.com/coreldraw/odm/2003">
 <defs>
  <style type="text/css">
   <![CDATA[
    .fil1 {fill:#3BCCFB}
    .fil0 {fill:black;fill-rule:nonzero}
   ]]>
  </style>
 </defs>
 <g id="Слой_x0020_1">
  <metadata id="CorelCorpID_0Corel-Layer"/>
  <g id="_2217735992784">
   <polygon class="fil0" points="-0,345.99 -0,145.56 59.99,145.56 59.99,345.99 "/>
   <polygon class="fil0" points="-0,85.1 -0,19.99 59.99,19.99 59.99,85.1 "/>
   <polygon class="fil0" points="101.84,20 101.84,85.1 192.53,85.1 192.53,345.99 257.63,345.99 257.63,85.1 347.85,85.1 347.85,20 "/>
   <path class="fil0" d="M864.98 345.99l54.87 0 0 -345.99 -54.87 0 0 169.74c-19.07,-18.6 -45.57,-30.23 -74.41,-30.23 -58.59,0 -106.03,47.9 -106.03,106.49 0,59.06 47.43,106.49 106.03,106.49 28.83,0 55.34,-11.63 74.41,-30.23l0 23.72zm-119.05 -99.98c0,-14.42 5.58,-27.9 15.35,-38.6 9.77,-10.23 22.79,-15.81 36.74,-15.81 13.95,0 27.44,5.58 37.2,15.81 9.77,10.7 15.35,24.18 15.35,38.6 0,14.42 -5.58,28.37 -15.35,38.6 -9.77,10.23 -23.25,15.81 -37.2,15.81 -13.95,0 -26.97,-5.58 -36.74,-15.81 -9.77,-10.23 -15.35,-24.18 -15.35,-38.6z"/>
   <polygon class="fil0" points="966.36,345.99 966.36,145.56 1026.35,145.56 1026.35,345.99 "/>
   <polygon class="fil0" points="966.36,85.1 966.36,19.99 1026.35,19.99 1026.35,85.1 "/>
   <path class="fil0" d="M1054.72 315.3c24.65,24.65 59.06,36.27 95.33,36.27 40.92,0 73.94,-30.69 73.94,-62.78 0,-34.41 -26.51,-53.48 -54.87,-61.85 -23.25,-7.91 -45.11,-10.7 -42.78,-25.58 2.79,-21.39 29.3,-23.72 68.36,4.18l26.97 -42.32c-26.97,-16.28 -45.57,-23.72 -79.99,-23.72 -38.13,0 -71.15,24.18 -71.15,60.92 0,38.6 26.97,50.69 66.03,62.78 14.88,4.65 29.3,9.3 29.3,24.18 0,25.11 -44.64,23.72 -73.94,-9.77l-37.2 37.67z"/>
   <path class="fil1" d="M347.24 319.49l136.39 -266.69c3.23,-6.32 9.36,-10.02 16.46,-9.91 7.1,0.1 13.13,3.96 16.18,10.36l127.26 266.7c2.77,5.81 2.4,12.11 -1.03,17.55 -3.43,5.44 -8.96,8.49 -15.39,8.49l-263.66 0c-6.53,0 -12.13,-3.15 -15.53,-8.71 -3.4,-5.57 -3.65,-11.98 -0.68,-17.79zm82.93 -38.61l67.9 -133 62.32 133 -130.21 0z"/>
  </g>
 </g>
</svg>
