<svg width="108" height="31" viewBox="0 0 108 31" fill="none" xmlns="http://www.w3.org/2000/svg">
<path d="M0 30.3268V12.7657H5.25464V30.3268H0Z" fill="#1A4199"/>
<path d="M0 7.4612V1.74963H5.25464V7.4612H0Z" fill="#1A4199"/>
<path d="M8.9248 1.74969V7.46126H16.8753V30.3227H22.5716V7.46126H30.4917V1.74969H8.9248Z" fill="#1A4199"/>
<path d="M75.8077 30.3246H80.6206V0H75.8077V14.8805C74.1323 13.2508 71.8172 12.2304 69.2889 12.2304C64.1561 12.2304 59.998 16.4341 59.998 21.5669C59.998 26.7453 64.1561 30.9034 69.2889 30.9034C71.8172 30.9034 74.1323 29.8829 75.8077 28.2532V30.3246V30.3246ZM65.3745 21.5669C65.3745 20.3027 65.8619 19.1147 66.7148 18.1856C67.5678 17.287 68.7101 16.7996 69.9286 16.7996C71.147 16.7996 72.335 17.287 73.1879 18.1856C74.0409 19.1299 74.5283 20.3027 74.5283 21.5669C74.5283 22.831 74.0409 24.0495 73.1879 24.9481C72.335 25.8467 71.147 26.3341 69.9286 26.3341C68.7101 26.3341 67.5678 25.8467 66.7148 24.9481C65.8619 24.0495 65.3745 22.831 65.3745 21.5669V21.5669Z" fill="#1A4199"/>
<path d="M84.7012 30.3269V12.7657H89.9558V30.3269H84.7012Z" fill="#1A4199"/>
<path d="M84.7012 7.46126V1.74969H89.9558V7.46126H84.7012Z" fill="#1A4199"/>
<path d="M92.4355 27.6257C94.5983 29.7885 97.614 30.809 100.797 30.809C104.377 30.809 107.27 28.1131 107.27 25.3106C107.27 22.2949 104.94 20.6195 102.457 19.8885C100.416 19.2031 98.4974 18.9442 98.7106 17.6495C98.9543 15.7761 101.285 15.5781 104.696 18.0151L107.057 14.2987C104.696 12.8671 103.067 12.2274 100.051 12.2274C96.7154 12.2274 93.8216 14.3444 93.8216 17.5734C93.8216 20.9546 96.1823 22.0208 99.6093 23.0717C100.919 23.4829 102.183 23.8942 102.183 25.1888C102.183 27.3973 98.269 27.2754 95.7102 24.3359L92.4508 27.641L92.4355 27.6257Z" fill="#1A4199"/>
<path fill-rule="evenodd" clip-rule="evenodd" d="M30.4357 27.9959L42.3919 4.61658C42.6813 4.06827 43.2144 3.73319 43.8389 3.74842C44.4633 3.76365 44.9964 4.09873 45.2553 4.66227L56.4043 28.0416C56.648 28.5442 56.6175 29.1078 56.3129 29.5799C56.0083 30.0521 55.5209 30.3262 54.9574 30.3262H31.8522C31.2734 30.3262 30.786 30.0521 30.4967 29.5647C30.192 29.0773 30.1768 28.5138 30.4357 28.0111V27.9959ZM37.7008 24.6147L43.6561 12.9631L49.124 24.6147H37.7161H37.7008Z" fill="#3BCCFB"/>
</svg>
